<svg width="231" height="230" viewBox="0 0 231 230" fill="none" xmlns="http://www.w3.org/2000/svg">
<g filter="url(#filter0_dii_478_441)">
<path d="M150.692 111C150.692 130.33 134.867 146 115.346 146C95.825 146 80 130.33 80 111C80 91.67 95.825 76 115.346 76C134.867 76 150.692 91.67 150.692 111Z" fill="#030092"/>
<path d="M150.692 111C150.692 130.33 134.867 146 115.346 146C95.825 146 80 130.33 80 111C80 91.67 95.825 76 115.346 76C134.867 76 150.692 91.67 150.692 111Z" fill="url(#paint0_radial_478_441)"/>
</g>
<defs>
<filter id="filter0_dii_478_441" x="0" y="0" width="230.692" height="230" filterUnits="userSpaceOnUse" color-interpolation-filters="sRGB">
<feFlood flood-opacity="0" result="BackgroundImageFix"/>
<feColorMatrix in="SourceAlpha" type="matrix" values="0 0 0 0 0 0 0 0 0 0 0 0 0 0 0 0 0 0 127 0" result="hardAlpha"/>
<feOffset dy="4"/>
<feGaussianBlur stdDeviation="40"/>
<feColorMatrix type="matrix" values="0 0 0 0 0.133167 0 0 0 0 0.171028 0 0 0 0 0.5875 0 0 0 1 0"/>
<feBlend mode="normal" in2="BackgroundImageFix" result="effect1_dropShadow_478_441"/>
<feBlend mode="normal" in="SourceGraphic" in2="effect1_dropShadow_478_441" result="shape"/>
<feColorMatrix in="SourceAlpha" type="matrix" values="0 0 0 0 0 0 0 0 0 0 0 0 0 0 0 0 0 0 127 0" result="hardAlpha"/>
<feOffset dx="10" dy="16"/>
<feGaussianBlur stdDeviation="10"/>
<feComposite in2="hardAlpha" operator="arithmetic" k2="-1" k3="1"/>
<feColorMatrix type="matrix" values="0 0 0 0 0.334167 0 0 0 0 0.0208333 0 0 0 0 1 0 0 0 0.95 0"/>
<feBlend mode="normal" in2="shape" result="effect2_innerShadow_478_441"/>
<feColorMatrix in="SourceAlpha" type="matrix" values="0 0 0 0 0 0 0 0 0 0 0 0 0 0 0 0 0 0 127 0" result="hardAlpha"/>
<feOffset dy="2"/>
<feGaussianBlur stdDeviation="5"/>
<feComposite in2="hardAlpha" operator="arithmetic" k2="-1" k3="1"/>
<feColorMatrix type="matrix" values="0 0 0 0 1 0 0 0 0 1 0 0 0 0 1 0 0 0 0.58 0"/>
<feBlend mode="normal" in2="effect2_innerShadow_478_441" result="effect3_innerShadow_478_441"/>
</filter>
<radialGradient id="paint0_radial_478_441" cx="0" cy="0" r="1" gradientUnits="userSpaceOnUse" gradientTransform="translate(129.767 97.84) rotate(111.163) scale(72.0598 72.5877)">
<stop stop-color="#3244E8"/>
<stop offset="1" stop-color="#000210" stop-opacity="0"/>
</radialGradient>
</defs>
</svg>
