<svg width="200" height="200" viewBox="0 0 200 200" fill="none" xmlns="http://www.w3.org/2000/svg">
<g filter="url(#filter0_diif_478_439)">
<path d="M120 96C120 107.046 111.046 116 100 116C88.9543 116 80 107.046 80 96C80 84.9543 88.9543 76 100 76C111.046 76 120 84.9543 120 96Z" fill="#030092"/>
<path d="M120 96C120 107.046 111.046 116 100 116C88.9543 116 80 107.046 80 96C80 84.9543 88.9543 76 100 76C111.046 76 120 84.9543 120 96Z" fill="url(#paint0_radial_478_439)"/>
</g>
<defs>
<filter id="filter0_diif_478_439" x="0" y="0" width="200" height="200" filterUnits="userSpaceOnUse" color-interpolation-filters="sRGB">
<feFlood flood-opacity="0" result="BackgroundImageFix"/>
<feColorMatrix in="SourceAlpha" type="matrix" values="0 0 0 0 0 0 0 0 0 0 0 0 0 0 0 0 0 0 127 0" result="hardAlpha"/>
<feOffset dy="4"/>
<feGaussianBlur stdDeviation="40"/>
<feColorMatrix type="matrix" values="0 0 0 0 0.133167 0 0 0 0 0.171028 0 0 0 0 0.5875 0 0 0 1 0"/>
<feBlend mode="normal" in2="BackgroundImageFix" result="effect1_dropShadow_478_439"/>
<feBlend mode="normal" in="SourceGraphic" in2="effect1_dropShadow_478_439" result="shape"/>
<feColorMatrix in="SourceAlpha" type="matrix" values="0 0 0 0 0 0 0 0 0 0 0 0 0 0 0 0 0 0 127 0" result="hardAlpha"/>
<feOffset dx="10" dy="16"/>
<feGaussianBlur stdDeviation="10"/>
<feComposite in2="hardAlpha" operator="arithmetic" k2="-1" k3="1"/>
<feColorMatrix type="matrix" values="0 0 0 0 0.334167 0 0 0 0 0.0208333 0 0 0 0 1 0 0 0 0.95 0"/>
<feBlend mode="normal" in2="shape" result="effect2_innerShadow_478_439"/>
<feColorMatrix in="SourceAlpha" type="matrix" values="0 0 0 0 0 0 0 0 0 0 0 0 0 0 0 0 0 0 127 0" result="hardAlpha"/>
<feOffset dy="2"/>
<feGaussianBlur stdDeviation="5"/>
<feComposite in2="hardAlpha" operator="arithmetic" k2="-1" k3="1"/>
<feColorMatrix type="matrix" values="0 0 0 0 1 0 0 0 0 1 0 0 0 0 1 0 0 0 0.58 0"/>
<feBlend mode="normal" in2="effect2_innerShadow_478_439" result="effect3_innerShadow_478_439"/>
<feGaussianBlur stdDeviation="2" result="effect4_foregroundBlur_478_439"/>
</filter>
<radialGradient id="paint0_radial_478_439" cx="0" cy="0" r="1" gradientUnits="userSpaceOnUse" gradientTransform="translate(108.16 88.48) rotate(110.973) scale(41.1247)">
<stop stop-color="#3244E8"/>
<stop offset="1" stop-color="#000210" stop-opacity="0"/>
</radialGradient>
</defs>
</svg>
