<svg width="1920" height="558" viewBox="0 0 1920 558" fill="none" xmlns="http://www.w3.org/2000/svg">
<path d="M-84 224.515C1.10423 187.949 97.431 208.576 181.6 244.204C265.769 279.832 346.197 328.586 435.977 348.276C525.758 367.965 629.566 352.026 688.485 276.082C716.541 239.516 731.504 193.574 752.079 151.383C771.718 109.192 800.71 67.0006 842.794 52.9368C912 29.4973 982.141 93.2529 1006.46 165.447C1030.77 237.641 1027.03 317.335 1038.25 394.217C1049.48 467.349 1088.75 547.981 1157.03 556.419C1225.3 563.92 1278.6 497.352 1320.69 438.284C1388.02 343.588 1460.03 248.892 1555.43 187.949C1649.88 126.068 1809.8 106.379 1908 157.946" stroke="#4C69FF" stroke-opacity="0.5" stroke-width="0.2" stroke-miterlimit="10"/>
<path d="M-84 217.875C0.171744 184.112 96.5016 206.621 180.673 241.321C243.335 267.58 304.125 300.405 366.786 322.913C389.232 331.354 411.678 337.919 435.059 342.608C523.907 361.365 627.719 345.421 687.574 271.332C716.567 235.694 732.466 190.677 753.041 149.412C773.617 108.147 803.544 67.82 845.63 53.7524C914.838 31.2442 984.981 92.2039 1011.17 162.542C1024.26 197.242 1030.81 233.818 1034.55 270.394C1039.23 308.845 1042.03 347.297 1048.58 384.811C1057.93 435.454 1080.38 488.911 1115.92 519.86C1130.88 532.99 1148.65 541.43 1169.22 544.244C1237.5 552.684 1291.74 488.911 1333.83 430.765C1401.16 338.856 1471.31 246.948 1564.83 186.926C1657.42 125.966 1813.61 105.334 1909 154.101" stroke="#4C69FF" stroke-opacity="0.5" stroke-width="0.2" stroke-miterlimit="10"/>
<path d="M-84 211.611C-0.750005 181.59 94.6601 204.106 179.781 238.818C242.452 264.148 303.253 296.045 366.86 318.561C389.309 326.066 411.758 332.633 435.143 338.262C524.006 356.087 627.834 340.138 688.635 267.901C717.632 233.189 734.469 190.034 755.983 149.693C777.497 109.353 807.43 69.9502 849.522 56.8161C918.742 34.3004 988.896 94.3422 1016.96 161.889C1030.99 195.663 1037.54 231.313 1043.15 266.962C1048.76 304.489 1052.5 342.015 1060.92 379.541C1071.21 429.263 1094.6 481.799 1131.08 511.82C1146.98 524.954 1164.75 533.398 1184.39 536.212C1252.68 544.656 1307.87 483.676 1350.89 427.387C1418.24 339.2 1487.46 249.137 1578.19 190.034C1669.86 130.93 1820.46 109.353 1914 154.384" stroke="#4C69FF" stroke-opacity="0.5" stroke-width="0.2" stroke-miterlimit="10"/>
<path d="M-85 203.893C-2.67477 176.68 92.7477 200.139 177.879 234.859C240.559 260.195 301.367 291.161 364.982 312.743C387.435 320.25 409.887 326.818 433.275 331.51C522.149 349.339 625.055 332.448 686.799 262.071C716.735 228.29 733.575 186.064 756.027 146.653C778.479 107.242 809.351 68.7687 851.449 55.6316C920.678 34.0493 990.841 91.2894 1020.78 156.975C1035.75 189.817 1043.23 223.598 1050.71 259.256C1057.26 295.852 1062.88 332.448 1071.3 369.045C1083.46 416.901 1106.84 469.449 1144.27 498.539C1160.17 510.737 1177.94 520.121 1198.53 521.998C1266.82 531.381 1322.95 473.203 1365.98 417.839C1432.4 333.387 1500.7 245.181 1589.57 187.002C1679.38 128.824 1826.26 107.242 1917 149.468" stroke="#4C69FF" stroke-opacity="0.5" stroke-width="0.2" stroke-miterlimit="10"/>
<path d="M-85 196.658C-2.70256 173.194 91.7524 197.596 175.92 231.384C238.579 256.726 300.302 286.76 362.96 307.408C385.405 314.916 407.849 320.548 431.229 325.241C520.073 342.135 622.945 325.241 685.603 257.664C715.53 224.814 734.234 183.518 756.678 145.975C780.058 107.494 810.92 70.8903 853.939 57.7504C923.144 36.1635 993.283 91.5387 1025.08 155.361C1040.04 187.272 1049.4 220.122 1057.81 254.848C1065.29 290.514 1071.84 326.179 1082.13 361.844C1095.22 408.773 1120.47 459.455 1157.88 489.489C1173.78 501.69 1191.55 510.137 1212.12 512.953C1280.39 522.339 1337.44 466.963 1381.39 413.465C1447.79 331.81 1514.19 245.463 1602.1 189.149C1690.01 131.897 1833.09 109.371 1921 148.791" stroke="#4C69FF" stroke-opacity="0.5" stroke-width="0.2" stroke-miterlimit="10"/>
<path d="M-85 190.967C-3.62988 171.258 89.899 195.66 175.01 229.448C237.675 254.789 299.404 283.885 363.003 304.533C385.45 312.041 407.897 317.673 431.279 321.427C520.132 337.382 622.078 320.488 686.613 254.789C717.478 222.878 736.184 182.52 759.566 145.916C783.883 109.313 814.748 72.7089 857.771 59.569C926.982 38.9207 998.064 91.48 1030.8 152.486C1046.7 182.52 1056.99 215.37 1066.34 248.219C1075.69 282.946 1083.18 317.673 1093.46 352.399C1107.49 398.389 1133.68 448.132 1171.09 477.228C1186.99 489.429 1204.76 497.876 1225.34 500.692C1293.62 511.016 1351.6 458.456 1396.5 405.897C1462.9 327.997 1527.44 243.527 1613.48 188.152C1699.53 131.838 1838.89 109.313 1924 144.978" stroke="#4C69FF" stroke-opacity="0.5" stroke-width="0.2" stroke-miterlimit="10"/>
<path d="M-85 182.65C-4.55741 165.755 88.9805 191.097 174.1 224.886C236.77 249.29 298.505 278.386 362.111 298.096C384.56 304.666 407.009 310.298 430.394 314.052C519.255 329.07 621.211 313.114 685.752 248.351C716.62 217.378 736.263 177.957 760.583 143.229C784.902 107.563 817.641 71.8963 860.668 59.6947C930.822 39.0457 1000.97 89.7295 1035.58 148.861C1052.42 177.957 1063.65 209.869 1073.93 241.781C1084.22 275.57 1092.64 309.359 1104.8 343.148C1120.7 388.201 1146.89 436.069 1185.24 465.165C1201.15 477.367 1218.92 485.814 1239.5 488.63C1307.78 498.954 1366.71 449.209 1411.61 397.587C1477.08 322.5 1540.69 240.842 1624.87 186.404C1709.06 131.966 1843.75 108.501 1927 141.352" stroke="#4C69FF" stroke-opacity="0.5" stroke-width="0.2" stroke-miterlimit="10"/>
<path d="M-85 176.102C-5.4826 162.953 88.0673 189.251 173.198 222.125C235.876 246.545 297.619 274.722 362.168 293.507C384.62 300.081 407.072 305.717 430.46 309.474C519.332 323.562 621.302 307.595 686.787 244.666C718.593 214.611 739.174 177.041 764.433 142.289C789.691 107.537 822.434 73.7249 865.467 61.5148C935.629 41.7907 1005.79 89.6919 1041.34 146.985C1059.12 175.163 1071.28 205.218 1082.5 237.152C1093.73 269.087 1103.08 302.899 1116.18 335.773C1133.02 379.917 1161.08 426.879 1199.44 455.056C1215.34 466.327 1233.12 474.78 1253.7 478.537C1321.99 488.868 1381.86 442.846 1427.7 392.127C1493.19 320.745 1555.86 240.909 1637.25 187.373C1719.58 133.836 1850.55 109.416 1931 139.472" stroke="#4C69FF" stroke-opacity="0.5" stroke-width="0.2" stroke-miterlimit="10"/>
<path d="M-85 168.613C-5.48006 158.286 86.2018 185.512 171.335 218.372C234.015 242.781 296.696 270.008 360.312 287.845C382.764 294.417 406.153 299.111 428.605 302.867C518.416 316.01 618.518 300.05 684.94 239.026C716.748 209.922 738.265 173.307 764.46 139.509C790.655 105.711 824.334 72.8521 867.368 60.6472C937.533 40.9317 1007.7 86.9346 1045.12 142.326C1063.83 169.552 1076.93 198.656 1089.09 229.638C1101.25 260.619 1112.48 293.478 1126.51 326.338C1145.22 369.524 1173.29 415.527 1211.64 442.753C1227.55 454.019 1246.26 462.469 1265.9 466.224C1334.2 477.49 1395.01 433.365 1440.85 384.545C1506.33 316.01 1567.14 238.087 1646.66 186.451C1727.12 133.876 1854.35 109.467 1932 135.754" stroke="#4C69FF" stroke-opacity="0.5" stroke-width="0.2" stroke-miterlimit="10"/>
<path d="M-85 162.728C-6.44193 156.168 85.2092 184.281 170.314 216.142C232.973 240.506 295.633 266.744 360.162 283.612C382.608 289.234 405.988 294.857 428.433 297.668C518.214 309.85 618.282 293.92 685.617 234.883C718.35 206.771 739.86 171.162 766.981 139.301C794.102 106.503 827.77 74.6418 870.79 63.3968C940.931 44.6551 1012.01 88.6981 1050.35 141.175C1069.99 167.413 1084.02 195.526 1097.11 224.575C1110.21 254.562 1122.36 286.423 1137.33 318.284C1156.97 360.453 1185.96 404.496 1225.24 432.608C1241.14 443.853 1259.84 452.287 1279.48 455.098C1347.75 466.343 1408.54 426.049 1456.23 378.257C1520.76 312.661 1580.62 237.695 1659.18 187.092C1737.73 135.552 1860.25 111.188 1936 134.615" stroke="#4C69FF" stroke-opacity="0.5" stroke-width="0.2" stroke-miterlimit="10"/>
<path d="M-86 155.464C-8.3672 152.648 83.2956 180.804 168.411 212.714C231.079 236.177 293.746 262.456 358.284 278.411C380.732 284.042 404.115 288.735 426.564 291.551C516.356 302.813 615.501 286.858 684.716 229.608C717.453 202.39 740.836 167.665 767.961 136.693C796.021 104.783 830.628 74.7502 873.654 62.5494C943.804 43.7788 1014.89 86.0126 1055.11 135.755C1075.69 161.095 1090.65 188.312 1104.68 216.468C1119.65 245.563 1132.74 276.534 1148.64 307.506C1169.22 347.862 1199.15 391.973 1239.37 419.191C1256.21 430.453 1273.98 437.961 1293.62 441.715C1361.9 453.916 1423.63 415.437 1471.33 369.449C1534.94 307.506 1593.86 234.3 1670.56 184.558C1747.26 133.878 1866.04 108.537 1939 129.185" stroke="#4C69FF" stroke-opacity="0.5" stroke-width="0.2" stroke-miterlimit="10"/>
<path d="M-86 147.947C-9.29033 147.947 82.3871 177.057 167.516 208.983C231.129 232.459 293.806 257.813 358.355 272.837C380.806 278.471 404.194 283.166 427.581 285.983C517.387 297.252 616.548 280.349 685.774 224.947C718.516 198.654 742.839 165.788 770.903 135.739C799.903 104.752 834.516 75.6419 877.548 64.3736C947.71 46.5321 1018.81 85.9712 1060.9 133.861C1081.48 158.276 1098.32 183.63 1114.23 211.8C1130.13 239.971 1144.16 270.02 1161 300.069C1183.45 339.508 1214.32 382.703 1254.55 408.996C1271.39 420.264 1289.16 427.776 1308.81 431.532C1377.1 443.74 1439.77 408.996 1488.42 363.923C1552.03 304.764 1609.1 234.337 1683.94 185.508C1758.77 136.679 1873.84 110.386 1944 127.288" stroke="#4C69FF" stroke-opacity="0.5" stroke-width="0.2" stroke-miterlimit="10"/>
<path d="M-86 141.498C-9.28546 145.25 80.5267 175.265 165.661 206.217C229.278 229.666 291.959 254.053 356.512 268.123C378.965 273.751 402.354 277.502 425.742 280.316C515.554 290.634 613.786 274.689 684.888 220.287C718.567 194.962 743.827 163.071 771.893 133.995C800.895 104.918 836.446 75.8409 880.416 65.5234C950.582 47.7021 1021.68 85.2205 1065.65 131.181C1087.17 154.63 1104.95 179.017 1121.79 206.217C1138.63 233.418 1153.59 262.495 1171.37 291.572C1194.76 330.028 1226.57 371.298 1266.8 397.561C1283.64 407.879 1301.41 416.321 1321.99 420.072C1390.29 433.204 1452.97 400.375 1502.55 357.229C1565.23 301.889 1622.3 232.48 1694.34 185.582C1767.31 137.746 1878.64 111.483 1946 125.553" stroke="#4C69FF" stroke-opacity="0.5" stroke-width="0.2" stroke-miterlimit="10"/>
<path d="M-86 134.163C-10.2486 140.724 79.5308 171.651 164.634 202.578C228.228 226.008 290.886 248.501 355.415 262.559C377.86 267.245 401.24 270.993 424.62 273.805C514.4 283.177 612.596 267.245 683.671 215.699C717.339 191.332 743.524 160.405 772.516 133.226C802.442 105.11 838.915 77.9319 881.934 66.6855C952.074 48.8789 1024.09 84.4922 1068.97 128.54C1091.42 150.096 1110.12 174.463 1127.89 199.767C1145.66 226.008 1162.49 254.124 1181.2 282.24C1205.51 319.727 1238.25 360.027 1279.4 385.331C1296.23 395.64 1314 404.075 1334.57 407.823C1402.84 420.944 1466.44 391.891 1516.94 348.78C1578.66 296.298 1634.77 229.757 1705.85 183.835C1777.86 136.975 1883.54 109.796 1949 121.043" stroke="#4C69FF" stroke-opacity="0.5" stroke-width="0.2" stroke-miterlimit="10"/>
<path d="M-86 127.781C-11.1743 138.116 78.6165 170.061 163.731 201.066C227.333 223.615 290.934 246.164 355.472 260.257C377.919 264.955 401.302 268.713 424.685 270.592C514.476 279.048 611.75 263.075 684.705 213.28C719.312 189.791 745.5 159.726 775.431 133.418C806.296 106.172 842.774 79.8643 886.734 69.5294C957.818 52.6176 1028.9 85.5016 1075.67 127.781C1099.05 148.451 1118.69 171.94 1137.4 196.368C1156.11 221.736 1173.88 248.982 1193.52 277.169C1219.71 313.811 1253.38 353.272 1294.53 378.639C1311.37 388.974 1330.08 396.491 1349.72 400.249C1418 414.342 1482.53 387.095 1533.04 345.755C1593.84 295.96 1649.02 232.07 1718.23 186.972C1788.38 140.935 1890.33 113.688 1953 121.204" stroke="#4C69FF" stroke-opacity="0.5" stroke-width="0.2" stroke-miterlimit="10"/>
<path d="M-86 120.332C-11.1648 133.473 76.7665 166.323 162.827 197.297C226.437 219.823 290.047 241.411 354.592 254.551C377.043 259.244 400.429 262.06 423.815 263.937C513.617 271.446 610.903 255.49 684.802 207.621C719.413 185.095 747.477 156.938 778.346 130.657C810.151 104.376 847.569 79.0344 890.599 68.7099C961.692 51.8153 1032.79 82.7888 1081.43 123.148C1105.75 142.859 1126.33 164.446 1145.97 188.85C1166.55 213.253 1185.26 239.534 1205.84 266.753C1232.97 302.419 1267.58 339.963 1308.74 365.305C1325.58 375.629 1344.29 383.138 1363.93 386.892C1432.22 400.971 1496.76 377.507 1549.15 337.147C1609.95 290.218 1663.27 229.209 1730.62 185.095C1798.91 140.043 1897.13 112.824 1957 116.578" stroke="#4C69FF" stroke-opacity="0.5" stroke-width="0.2" stroke-miterlimit="10"/>
<path d="M-86 113.718C-12.0979 130.616 75.8362 163.472 160.964 194.45C224.576 216.98 288.188 237.632 353.671 249.836C376.122 253.591 399.509 257.346 422.895 259.223C512.7 265.795 609.054 249.836 683.891 203.838C719.439 182.246 747.503 155.023 779.309 130.616C812.05 105.269 849.469 81.8009 893.436 71.4747C964.532 55.5161 1035.63 84.6171 1085.21 121.228C1110.47 140.003 1131.98 160.655 1152.56 184.124C1174.08 207.593 1193.72 232.939 1215.24 259.223C1244.24 293.018 1278.85 330.568 1320.95 354.975C1337.78 365.301 1356.49 372.811 1376.14 376.566C1444.43 390.647 1509.91 369.995 1562.3 331.507C1622.17 288.324 1674.55 228.245 1740.04 186.001C1806.45 142.819 1900.94 113.718 1958 115.596" stroke="#4C69FF" stroke-opacity="0.5" stroke-width="0.2" stroke-miterlimit="10"/>
<path d="M-87 106.419C-14.0598 127.075 73.8424 160.876 158.939 190.921C222.528 213.455 287.052 233.172 351.576 244.439C374.019 248.195 397.397 251.011 420.776 252.889C510.548 258.523 606.867 242.561 682.612 198.433C718.147 177.777 747.136 151.487 779.866 128.014C813.53 103.603 850.936 81.0689 894.887 71.6798C965.957 55.7183 1037.96 82.9467 1088.46 117.686C1114.64 135.526 1137.09 155.243 1158.59 176.838C1181.04 199.371 1201.61 224.722 1224.99 249.134C1254.91 281.995 1290.45 318.613 1333.46 342.086C1350.3 351.475 1369 358.986 1388.64 363.681C1456.9 378.703 1522.36 360.864 1576.6 323.307C1635.51 282.934 1687.88 225.661 1750.53 184.349C1815.05 142.098 1904.83 112.992 1960 111.114" stroke="#4C69FF" stroke-opacity="0.5" stroke-width="0.2" stroke-miterlimit="10"/>
<path d="M-87 99.75C-14.9859 123.213 71.9922 157.938 158.035 187.971C221.632 209.557 286.164 229.266 351.632 239.59C374.078 243.344 397.459 246.16 420.84 247.098C510.624 251.791 606.954 235.836 682.709 193.602C719.184 173.893 749.112 148.553 781.846 126.967C816.45 103.504 854.795 81.9181 898.752 72.5328C969.831 57.5164 1041.84 81.9181 1094.22 114.766C1121.34 131.66 1144.72 150.43 1167.17 171.078C1190.55 192.664 1213 217.065 1236.38 240.529C1267.24 272.438 1304.65 307.164 1347.67 330.627C1364.51 340.012 1383.21 347.52 1402.85 352.213C1471.12 367.229 1537.53 352.213 1591.77 316.549C1649.76 279.008 1701.2 224.574 1762.92 184.217C1825.58 142.922 1911.63 113.828 1964 108.197" stroke="#4C69FF" stroke-opacity="0.5" stroke-width="0.2" stroke-miterlimit="10"/>
<path d="M-87 92.4899C-14.9768 119.719 71.0769 154.46 157.131 184.507C220.736 206.102 285.276 224.881 350.751 234.271C374.136 238.026 396.584 239.904 419.969 240.843C509.764 245.538 605.171 228.637 682.806 188.262C719.286 169.483 750.153 146.01 783.826 124.414C818.435 102.818 857.72 82.1615 901.682 72.772C972.77 57.7489 1044.79 80.2836 1099.04 111.269C1126.17 127.231 1151.43 145.071 1175.74 164.789C1200.06 185.445 1223.45 208.919 1248.7 232.393C1281.44 263.378 1318.86 297.18 1361.88 320.654C1379.65 330.043 1397.43 337.555 1417.07 342.249C1485.35 358.211 1551.76 345.066 1607.88 311.264C1664.01 276.523 1715.45 224.881 1775.31 185.445C1836.11 145.071 1918.43 115.025 1968 107.513" stroke="#4C69FF" stroke-opacity="0.5" stroke-width="0.2" stroke-miterlimit="10"/>
<path d="M-87 84.8862C-15.9032 114.871 70.1613 151.415 155.29 180.462C218.903 202.014 284.387 219.817 349.871 228.25C373.258 231.061 395.71 233.872 419.097 234.809C508.903 238.557 604.323 222.628 682.903 183.273C720.323 165.47 752.129 142.981 785.806 123.304C821.355 102.69 861.581 83.0122 905.548 73.642C976.645 59.5867 1048.68 79.2641 1104.81 108.312C1132.87 123.304 1159.06 139.233 1184.32 158.911C1210.52 178.588 1234.84 201.077 1260.1 223.565C1293.77 253.55 1332.13 286.345 1376.1 308.834C1393.87 318.204 1412.58 325.7 1432.23 329.448C1500.52 345.378 1567.87 336.008 1624 302.275C1679.19 270.416 1729.71 220.754 1787.71 183.273C1846.65 144.855 1924.29 113.934 1972 102.69" stroke="#4C69FF" stroke-opacity="0.5" stroke-width="0.2" stroke-miterlimit="10"/>
<path d="M-87 77.7057C-16.8662 111.511 68.2296 148.134 154.26 177.245C217.848 198.843 283.307 215.746 348.765 223.258C372.143 226.075 394.586 227.953 417.964 228.892C507.735 231.709 602.182 215.746 681.667 178.184C719.072 161.281 751.801 139.683 786.4 120.902C822.87 101.182 863.08 82.4009 907.03 73.9495C979.034 59.8638 1051.04 77.7057 1108.08 103.999C1137.07 117.146 1164.19 133.109 1190.37 150.951C1217.49 169.732 1242.74 191.33 1269.86 212.928C1305.39 242.039 1344.67 273.027 1388.62 295.564C1406.38 304.016 1425.09 311.528 1444.72 316.224C1512.99 333.126 1580.32 325.614 1638.29 293.686C1692.53 264.576 1742.09 217.624 1798.2 181.001C1855.24 143.439 1929.11 111.511 1974 97.4257" stroke="#4C69FF" stroke-opacity="0.5" stroke-width="0.2" stroke-miterlimit="10"/>
<path d="M-87 70.1774C-17.7926 107.64 67.3139 145.103 153.356 173.2C216.952 193.804 282.418 210.662 347.885 217.218C371.265 220.028 393.711 220.964 417.092 221.901C506.875 223.774 601.333 207.852 681.764 173.2C719.173 157.278 752.841 136.674 788.38 118.879C825.79 100.147 866.005 82.3527 910.896 74.8602C982.909 61.7483 1054.92 76.7333 1113.84 101.084C1143.77 113.259 1171.83 128.244 1198.95 145.103C1227.01 162.897 1254.13 183.502 1281.25 204.106C1317.72 232.203 1357.94 262.173 1401.9 283.714C1419.66 292.143 1438.37 299.636 1458.01 304.319C1526.28 321.177 1593.62 316.494 1653.47 286.524C1706.78 259.364 1756.35 216.282 1810.59 180.692C1865.77 144.166 1935.91 112.323 1978 95.4646" stroke="#4C69FF" stroke-opacity="0.5" stroke-width="0.2" stroke-miterlimit="10"/>
<path d="M-87 67C-17.7839 107.411 66.3978 145.942 152.45 174.136C216.054 194.811 282.464 209.848 347.939 217.366C371.323 219.246 393.771 221.125 417.155 221.125C506.949 222.065 600.484 206.089 681.86 173.196C720.209 157.22 754.817 139.364 791.296 122.448C829.646 104.592 870.801 88.6151 914.763 80.157C986.785 67 1058.81 80.157 1119.6 102.712C1150.47 113.989 1179.47 128.086 1207.53 144.063C1236.52 160.979 1264.58 180.714 1293.58 200.45C1330.99 226.764 1372.15 256.837 1417.05 277.513C1434.82 285.971 1453.53 293.489 1473.17 298.188C1541.45 315.104 1609.73 313.225 1669.59 285.031C1721.97 260.596 1770.61 220.186 1822.99 185.413C1877.24 149.701 1942.72 117.749 1982 97.0732" stroke="#4C69FF" stroke-opacity="0.5" stroke-width="0.2" stroke-miterlimit="10"/>
<path d="M-88 63C-19.7107 107.185 64.4815 145.73 150.545 173.934C214.157 194.616 280.575 208.718 346.058 215.299C369.445 217.179 391.896 218.119 415.282 218.119C505.088 218.119 598.634 202.137 680.956 171.113C719.31 156.072 754.858 139.149 792.277 123.167C831.566 106.245 872.727 91.2035 917.63 83.6826C989.661 71.4611 1062.63 81.8023 1124.37 102.485C1156.17 112.826 1186.11 125.048 1215.11 141.03C1245.04 157.012 1274.04 175.814 1303.98 194.616C1343.27 219.999 1384.43 248.203 1430.27 269.826C1448.04 278.287 1466.75 284.867 1486.39 290.508C1554.68 308.37 1622.97 308.37 1684.71 282.047C1736.17 260.424 1783.87 221.88 1834.39 188.976C1886.78 154.191 1947.58 121.287 1985 97.7843" stroke="#4C69FF" stroke-opacity="0.5" stroke-width="0.2" stroke-miterlimit="10"/>
<path d="M-88 59C-20.6703 105.929 62.5568 146.288 148.589 173.507C212.178 194.156 278.573 207.296 344.968 212.927C368.346 214.805 391.724 215.743 414.168 215.743C503.941 214.805 596.519 198.849 680.681 169.753C719.957 155.674 756.427 139.718 793.832 125.639C834.043 110.622 876.124 95.6047 921.011 88.096C993.016 75.8945 1065.96 84.3417 1129.55 103.113C1162.28 112.499 1193.14 123.762 1223.06 137.841C1253.92 152.858 1284.78 170.691 1315.64 189.463C1355.85 213.866 1398.86 241.085 1444.69 261.734C1462.45 270.181 1481.16 276.751 1500.79 282.383C1569.06 300.216 1637.32 302.093 1699.98 278.628C1749.54 258.918 1797.23 224.19 1845.86 192.279C1896.36 159.428 1953.4 125.639 1988 99.359" stroke="#4C69FF" stroke-opacity="0.5" stroke-width="0.2" stroke-miterlimit="10"/>
<path d="M-88 55C-21.6013 105.611 61.631 145.913 147.669 173.093C211.262 193.712 278.596 205.896 344.059 210.583C367.439 212.457 390.819 212.457 414.199 212.457C503.978 211.52 596.562 194.65 680.729 167.469C720.007 154.348 757.415 139.352 795.758 126.231C836.906 112.172 878.99 99.0505 923.879 91.5526C995.889 79.3684 1068.83 86.8663 1133.36 101.862C1167.03 110.297 1198.83 120.607 1230.62 133.729C1263.35 147.787 1294.22 164.658 1326.01 182.465C1368.1 205.896 1411.12 232.139 1456.94 251.822C1474.71 259.319 1493.41 266.817 1513.05 271.504C1581.32 290.249 1649.59 293.998 1714.12 271.504C1762.75 254.633 1809.51 222.767 1856.27 191.838C1904.9 159.971 1958.2 126.231 1990 96.2388" stroke="#4C69FF" stroke-opacity="0.5" stroke-width="0.2" stroke-miterlimit="10"/>
<path d="M-88 52C-21.5889 106.324 60.7235 146.598 146.777 173.76C211.318 193.428 277.729 205.604 344.14 209.351C367.524 210.288 390.908 211.224 414.293 210.288C504.088 208.414 595.754 191.555 681.808 166.267C722.029 154.091 759.443 140.978 798.729 128.802C839.885 115.69 883.847 103.514 928.745 96.9574C1000.77 85.7181 1073.73 90.4011 1140.14 103.514C1174.75 111.007 1207.48 120.373 1240.22 132.549C1273.9 145.661 1306.63 161.584 1339.37 178.443C1382.4 200.921 1426.36 225.273 1473.13 244.942C1491.84 252.435 1510.54 258.991 1529.25 264.611C1597.53 283.343 1666.75 289.9 1731.29 269.294C1778.99 254.308 1825.76 226.21 1870.66 196.238C1917.43 165.33 1967 130.675 1996 97.894" stroke="#4C69FF" stroke-opacity="0.5" stroke-width="0.2" stroke-miterlimit="10"/>
<path d="M-88 48C-22.5202 105.296 58.8619 147.563 145.857 173.863C210.401 193.588 276.816 204.859 343.231 207.677C366.617 208.616 390.003 208.616 413.388 207.677C503.189 205.798 593.926 188.891 680.92 165.409C721.144 154.138 760.431 141.927 799.719 130.656C841.813 118.446 885.778 107.174 930.679 100.599C1003.64 89.3281 1076.61 92.1459 1143.96 103.417C1178.57 109.053 1213.18 117.506 1246.85 129.717C1281.46 141.927 1315.14 156.956 1348.81 172.924C1392.78 194.527 1437.68 218.009 1485.39 236.794C1504.1 244.308 1522.8 250.883 1541.51 256.519C1609.8 276.244 1679.02 283.758 1745.44 265.912C1792.21 253.701 1838.04 227.401 1881.07 199.223C1925.97 169.166 1970.87 134.413 1998 98.7208" stroke="#4C69FF" stroke-opacity="0.5" stroke-width="0.2" stroke-miterlimit="10"/>
<path d="M-88 54C-23.4476 114.948 57.9445 157.142 144.014 183.397C208.567 203.088 275.926 213.402 342.349 215.277C365.738 216.215 389.126 216.215 412.515 215.277C502.327 211.527 593.074 194.649 681.015 173.083C722.179 162.768 761.472 151.517 801.7 141.202C844.735 129.95 888.705 120.574 934.547 114.01C1007.52 103.696 1080.49 103.696 1149.72 113.072C1185.27 117.761 1220.82 125.262 1255.44 135.576C1290.99 146.828 1325.6 160.893 1361.15 175.896C1407 196.524 1452.84 219.028 1499.61 236.843C1518.32 244.345 1537.04 250.908 1556.68 256.534C1624.98 276.225 1694.21 285.602 1761.57 270.599C1807.41 260.285 1852.31 237.781 1893.48 210.589C1936.51 181.522 1977.68 146.828 2002 107.447" stroke="#4C69FF" stroke-opacity="0.5" stroke-width="0.2" stroke-miterlimit="10"/>
<path d="M-88 59C-24.4077 122.846 56.9531 166.975 142.99 192.326C207.517 212.043 274.85 221.432 341.248 222.371C364.628 223.31 388.007 222.371 411.387 221.432C502.099 216.738 591.877 200.776 680.719 181.059C721.867 171.67 763.015 162.281 803.227 152.892C847.181 143.502 892.07 134.113 936.958 127.541C1009.9 117.213 1082.85 115.335 1153.92 122.846C1190.39 126.602 1226.86 133.174 1262.4 142.564C1298.87 152.892 1335.35 166.036 1370.88 180.12C1417.64 198.898 1464.4 220.494 1512.09 239.272C1530.8 246.783 1549.5 253.356 1569.14 258.989C1637.41 279.645 1706.61 289.973 1775.82 277.767C1820.7 269.317 1864.66 250.539 1903.94 224.249C1945.08 197.021 1982.49 160.403 2004 118.152" stroke="#4C69FF" stroke-opacity="0.5" stroke-width="0.2" stroke-miterlimit="10"/>
<path d="M-87 65C22.4297 183.273 185.171 230.207 341.366 231.146C497.56 233.023 651.884 194.537 806.208 164.5C960.532 134.462 1119.53 113.811 1271.99 150.419C1359.9 171.07 1442.21 210.495 1527.32 241.471C1612.43 272.447 1702.22 295.914 1792.01 283.712C1881.8 271.509 1970.65 217.065 2009 127.891" stroke="#4C69FF" stroke-opacity="0.5" stroke-width="0.2" stroke-miterlimit="10"/>
<path d="M-84 70C25.4584 190.117 186.372 239.853 343.543 244.545C498.842 248.298 653.207 211.7 807.571 182.609C852.477 174.164 898.319 165.718 943.225 160.088C1053.62 145.073 1164.01 140.381 1270.66 163.841C1350.19 180.733 1425.96 212.639 1501.74 239.853C1509.23 242.668 1516.71 245.483 1524.2 247.36C1608.39 276.451 1698.21 297.096 1788.02 283.958C1877.83 270.82 1966.71 217.331 2006 131.935" stroke="#4C69FF" stroke-opacity="0.5" stroke-width="0.2" stroke-miterlimit="10"/>
<path d="M-81 75C27.5061 197.207 188.394 251.73 345.541 258.311C499.882 264.891 654.222 230.109 808.563 200.967C853.462 192.507 899.296 184.046 944.195 177.466C1053.64 161.485 1164.01 155.845 1270.65 175.586C1349.22 190.627 1424.99 219.768 1500.76 244.21C1508.24 247.03 1515.72 248.91 1523.21 251.73C1607.39 278.052 1696.25 296.853 1785.12 283.692C1873.98 269.591 1963.78 216.948 2004 134.224" stroke="#4C69FF" stroke-opacity="0.5" stroke-width="0.2" stroke-miterlimit="10"/>
<path d="M-78 80C28.6187 204.911 188.547 263.141 346.604 271.593C500.921 280.046 655.237 247.175 808.619 218.06C853.511 209.607 898.403 201.155 944.23 194.58C1053.65 178.614 1163.08 171.101 1268.76 188.006C1347.32 201.155 1422.14 227.452 1497.9 249.992C1505.38 251.87 1512.86 254.688 1520.35 256.566C1604.52 280.046 1692.43 296.951 1781.28 282.863C1870.13 267.836 1958.98 217.121 2002 136.351" stroke="#4C69FF" stroke-opacity="0.5" stroke-width="0.2" stroke-miterlimit="10"/>
<path d="M-75 84C30.667 210.567 190.57 272.443 348.603 284.631C501.96 295.882 656.253 264.006 809.61 235.88C854.495 227.442 899.38 219.004 945.201 212.442C1054.61 195.566 1163.08 186.191 1267.81 201.191C1346.36 212.442 1420.23 235.88 1495.98 256.505C1503.46 258.381 1510.94 260.256 1518.42 262.131C1601.64 283.694 1689.54 297.757 1778.38 282.756C1867.21 267.756 1956.05 217.129 2000 139.314" stroke="#4C69FF" stroke-opacity="0.5" stroke-width="0.2" stroke-miterlimit="10"/>
<path d="M-71 84C32.8241 213.186 191.834 278.715 350.844 292.757C503.306 305.863 657.64 276.843 811.038 248.759C855.934 240.334 900.831 231.908 945.728 225.355C1054.23 208.505 1162.73 197.272 1267.49 209.441C1345.12 218.803 1419.02 239.397 1493.84 257.184C1501.33 259.056 1508.81 260.928 1516.29 261.864C1599.54 280.587 1687.46 292.757 1774.45 276.843C1863.31 260.928 1951.23 211.314 1998 137.359" stroke="#4C69FF" stroke-opacity="0.5" stroke-width="0.2" stroke-miterlimit="10"/>
<path d="M-68 81C34.8727 213.144 192.923 282.497 352.843 299.366C504.346 315.299 658.655 287.183 812.029 260.004C856.919 251.569 901.809 244.072 946.699 236.574C1055.18 218.768 1162.73 206.584 1266.54 215.956C1344.16 223.454 1417.11 241.26 1491.92 257.193C1499.41 259.067 1506.89 260.004 1514.37 261.878C1596.67 277.811 1684.58 288.12 1771.55 272.188C1859.46 255.318 1948.3 207.521 1996 135.357" stroke="#4C69FF" stroke-opacity="0.5" stroke-width="0.2" stroke-miterlimit="10"/>
<path d="M-66 79C36.9065 213.128 194.073 286.289 354.045 305.048C505.599 322.869 659.023 297.544 812.447 270.344C857.352 261.902 902.256 254.398 947.161 245.957C1054.74 227.197 1162.33 213.128 1265.24 220.632C1341.95 225.321 1414.92 242.205 1489.76 255.336C1497.24 256.274 1504.73 258.15 1512.21 259.088C1594.54 272.219 1681.54 280.661 1768.54 263.778C1856.48 245.957 1945.35 199.059 1994 129.65" stroke="#4C69FF" stroke-opacity="0.5" stroke-width="0.2" stroke-miterlimit="10"/>
<path d="M-62 76C39.0196 211.929 195.226 289.736 356.109 311.297C506.703 331.921 661.038 307.548 813.503 280.362C858.401 272.862 903.298 264.425 948.196 255.988C1055.76 237.24 1162.39 221.303 1265.28 225.053C1341.98 227.865 1414.01 241.927 1488.84 252.239C1496.32 253.176 1503.8 254.114 1511.29 255.051C1592.66 266.3 1679.65 271.925 1765.71 254.114C1853.63 235.365 1941.55 189.43 1993 123.809" stroke="#4C69FF" stroke-opacity="0.5" stroke-width="0.2" stroke-miterlimit="10"/>
<path d="M-59 73C41.0621 211.704 197.234 293.24 358.081 317.607C507.707 340.1 662.008 318.544 814.439 291.366C859.327 283.868 904.215 275.433 948.167 266.999C1055.71 247.318 1161.38 230.448 1263.32 231.385C1339.06 232.322 1412.01 243.569 1484.95 252.004C1492.43 252.941 1499.91 253.878 1507.39 253.878C1588.75 262.313 1674.79 266.061 1760.82 247.318C1848.73 228.574 1936.63 182.651 1989 119.86" stroke="#4C69FF" stroke-opacity="0.5" stroke-width="0.2" stroke-miterlimit="10"/>
<path d="M-55 70C44.1629 211.758 198.52 296.25 361.297 323.475C510.041 348.823 664.398 328.169 816.885 301.883C861.789 294.372 905.757 285.923 950.661 277.474C1057.31 257.759 1163.02 238.983 1264.99 237.106C1340.76 236.167 1412.8 244.616 1485.77 250.249C1493.25 251.188 1500.73 251.188 1507.28 252.127C1587.74 257.759 1673.8 259.637 1759.87 239.922C1846.87 220.207 1935.74 176.084 1990 115.062" stroke="#4C69FF" stroke-opacity="0.5" stroke-width="0.2" stroke-miterlimit="10"/>
<path d="M-52 68C45.2734 211.397 199.601 300.435 363.283 330.426C511.063 357.606 665.391 339.799 817.849 313.556C862.744 306.058 906.704 297.623 951.6 289.188C1058.23 268.569 1162.98 247.949 1264 244.2C1338.82 241.389 1410.84 247.012 1483.8 250.761C1491.28 250.761 1498.76 251.698 1505.31 251.698C1585.75 255.447 1670.86 254.51 1755.98 234.828C1842.96 214.209 1930.88 171.096 1987 112.987" stroke="#4C69FF" stroke-opacity="0.5" stroke-width="0.2" stroke-miterlimit="10"/>
<path d="M-50 65C46.3166 211.49 200.61 303.516 364.255 336.382C512.003 365.493 665.361 349.529 817.785 324.175C862.67 316.662 906.62 308.211 950.571 298.821C1057.17 277.223 1160.97 255.625 1261.03 249.052C1335.84 244.356 1406.91 247.174 1478.91 249.052C1486.39 249.052 1492.94 249.052 1500.42 249.052C1580.84 249.991 1665 247.174 1750.09 226.515C1837.06 204.917 1924.96 162.66 1982 108.196" stroke="#4C69FF" stroke-opacity="0.5" stroke-width="0.2" stroke-miterlimit="10"/>
<path d="M-46 62C49.4163 210.254 201.895 305.962 366.535 341.618C513.402 373.52 667.752 359.446 819.295 333.173C863.261 325.666 908.163 317.222 952.13 307.838C1057.84 286.257 1161.67 262.799 1261.76 253.416C1335.67 246.848 1406.76 246.848 1478.79 245.91C1486.27 245.91 1492.82 245.91 1500.31 244.971C1579.82 243.095 1664.01 238.403 1749.14 216.822C1836.13 194.302 1924.07 153.016 1983 101.409" stroke="#4C69FF" stroke-opacity="0.5" stroke-width="0.2" stroke-miterlimit="10"/>
<path d="M-43 59C51.4598 210.192 203.905 309.735 368.508 347.298C514.406 381.105 668.722 368.897 820.231 343.542C864.188 336.968 908.144 327.577 952.101 318.187C1057.78 295.649 1160.66 270.293 1259.8 258.085C1333.68 249.634 1403.82 247.755 1475.84 243.999C1483.32 243.999 1489.87 243.06 1497.35 243.06C1576.84 238.365 1660.08 231.791 1744.25 209.253C1830.3 186.715 1918.21 146.335 1979 96.5633" stroke="#4C69FF" stroke-opacity="0.5" stroke-width="0.2" stroke-miterlimit="10"/>
<path d="M-39 56C53.5744 209.121 205.995 312.455 370.572 352.849C515.511 388.546 669.802 378.213 821.287 353.788C865.237 346.273 910.121 337.819 954.071 328.425C1058.8 305.879 1161.66 278.637 1259.85 263.606C1332.78 252.334 1402.92 248.576 1474.92 242C1482.4 241.061 1488.95 241.061 1496.43 240.122C1574.97 233.546 1658.2 224.152 1742.36 200.667C1828.38 177.182 1916.28 137.727 1978 91.6971" stroke="#4C69FF" stroke-opacity="0.5" stroke-width="0.2" stroke-miterlimit="10"/>
<path d="M-37 54C54.6671 209.791 206.199 315.842 371.761 359.951C515.809 397.491 670.146 389.983 821.678 365.582C865.641 358.074 910.539 349.628 953.566 339.304C1058.33 315.842 1159.35 287.687 1258.5 269.855C1331.46 256.716 1401.61 250.147 1471.77 241.7C1479.25 240.762 1485.8 239.823 1493.28 238.885C1571.85 229.5 1654.17 218.238 1737.41 194.775C1823.47 170.374 1910.46 131.896 1975 88.7245" stroke="#4C69FF" stroke-opacity="0.5" stroke-width="0.2" stroke-miterlimit="10"/>
<path d="M-34 50C56.7171 207.433 207.289 318.011 373.76 363.929C517.785 404.224 671.162 397.665 822.669 374.237C866.625 366.74 910.581 358.306 954.536 347.998C1059.28 323.634 1159.35 293.646 1257.55 273.967C1329.56 258.974 1399.7 249.603 1469.85 239.295C1477.33 238.357 1483.88 237.42 1491.36 235.546C1568.98 223.364 1651.28 210.244 1734.52 185.88C1820.56 160.578 1907.53 124.031 1973 82.7986" stroke="#4C69FF" stroke-opacity="0.5" stroke-width="0.2" stroke-miterlimit="10"/>
<path d="M-30 47C59.8122 207.474 209.499 321.025 376.026 369.824C519.164 412.054 673.529 408.3 824.152 383.901C868.122 377.332 912.093 367.947 956.064 357.624C1059.91 333.225 1160.01 301.318 1257.31 278.795C1329.35 261.903 1398.58 249.704 1468.74 236.565C1476.23 235.627 1482.77 233.75 1490.26 232.812C1567.91 217.797 1649.3 201.843 1732.57 177.444C1817.7 151.167 1905.64 115.506 1973 77.0302" stroke="#4C69FF" stroke-opacity="0.5" stroke-width="0.2" stroke-miterlimit="10"/>
<path d="M-27 43C61.8566 205.203 210.575 323.34 377.999 374.907C520.17 418.974 674.5 417.099 825.088 393.659C869.049 387.096 913.009 377.72 956.97 367.407C1060.79 342.092 1159.94 309.276 1257.21 283.961C1328.3 265.209 1397.51 250.208 1466.73 235.206C1473.27 233.331 1480.76 232.394 1487.3 230.518C1564 213.642 1645.37 194.89 1727.68 169.575C1812.8 143.322 1899.79 107.694 1969 73.0029" stroke="#4C69FF" stroke-opacity="0.5" stroke-width="0.2" stroke-miterlimit="10"/>
<path d="M-23 40C63.9662 204.121 211.715 325.102 380.037 380.434C521.24 426.388 675.535 427.326 826.089 403.88C870.04 397.315 913.99 387.937 957.006 377.621C1060.8 352.299 1158.99 317.599 1255.31 288.527C1326.38 267.894 1394.64 250.075 1463.84 232.256C1470.39 230.381 1477.87 228.505 1484.41 226.629C1561.09 206.935 1641.51 186.302 1723.8 160.981C1808.9 133.784 1895.87 99.0836 1966 67.1972" stroke="#4C69FF" stroke-opacity="0.5" stroke-width="0.2" stroke-miterlimit="10"/>
<path d="M-21 37C65.0631 204.096 212.867 328.948 381.252 386.211C522.507 434.087 675.924 436.903 826.535 414.374C870.502 407.802 914.469 398.415 957.5 387.15C1060.4 360.865 1158.63 324.255 1254.04 293.276C1324.2 270.746 1392.49 250.094 1461.72 230.381C1468.27 228.503 1475.75 226.626 1482.3 223.809C1559.01 202.218 1638.52 178.75 1720.84 152.465C1805.97 124.303 1892.97 91.4469 1965 61.4072" stroke="#4C69FF" stroke-opacity="0.5" stroke-width="0.2" stroke-miterlimit="10"/>
<path d="M-18 34C67.1138 203.873 213.958 331.512 383.251 392.516C523.548 442.257 676.94 447.889 827.526 425.364C871.486 418.794 915.446 409.409 958.47 398.147C1061.35 370.93 1158.63 333.389 1254.03 299.602C1324.18 275.2 1391.52 251.737 1460.73 230.151C1467.28 228.274 1474.76 225.459 1481.31 223.582C1557.07 199.18 1636.57 173.84 1717.95 146.623C1802.13 117.529 1889.11 85.6188 1963 59.3401" stroke="#4C69FF" stroke-opacity="0.5" stroke-width="0.2" stroke-miterlimit="10"/>
<path d="M-14 30C70.1619 201.833 216.043 333.289 386.237 397.14C525.571 449.722 679.868 456.295 829.49 433.76C873.441 427.187 917.392 417.797 960.408 406.529C1063.27 379.299 1159.59 339.862 1254.04 303.242C1323.24 276.012 1390.57 251.598 1458.83 226.246C1465.38 223.429 1472.86 221.551 1479.41 218.734C1555.15 191.504 1633.7 164.274 1715.06 136.104C1799.22 106.057 1886.19 75.0708 1961 51.5964" stroke="#4C69FF" stroke-opacity="0.5" stroke-width="0.2" stroke-miterlimit="10"/>
<path d="M-11 26C71.3172 200.522 217.243 334.697 387.49 401.316C525.933 455.737 680.277 465.12 829.945 442.601C873.91 436.033 916.939 426.65 959.969 415.39C1061.93 387.242 1158.28 345.957 1251.82 307.487C1321.04 278.4 1388.39 251.19 1455.74 223.979C1462.29 221.164 1469.77 218.349 1476.32 215.534C1551.16 185.509 1629.73 156.422 1711.11 127.335C1795.3 97.31 1881.36 66.3464 1959 45.7041" stroke="#4C69FF" stroke-opacity="0.5" stroke-width="0.2" stroke-miterlimit="10"/>
<path d="M-8 23C73.3684 199.408 218.335 337.345 389.489 406.782C527.909 463.082 681.293 474.342 830.936 452.761C874.894 446.192 917.916 436.809 960.939 425.549C1062.88 397.398 1158.28 354.235 1251.81 312.948C1320.08 281.982 1387.42 251.955 1454.76 221.928C1461.31 219.113 1468.79 216.298 1475.34 212.545C1550.16 180.641 1627.79 148.738 1708.22 119.649C1792.39 88.6839 1878.44 59.5953 1957 41.7668" stroke="#4C69FF" stroke-opacity="0.5" stroke-width="0.2" stroke-miterlimit="10"/>
<path d="M-5 20C75.4198 199.224 219.427 340.914 391.489 413.167C528.95 471.344 682.309 484.481 831.927 463.837C875.878 457.269 918.893 447.885 961.908 435.687C1062.9 406.598 1158.28 362.496 1250.86 317.455C1319.12 284.613 1385.52 251.771 1451.91 219.868C1458.45 217.052 1465 213.299 1472.48 210.484C1546.35 175.765 1623.97 141.985 1704.39 111.958C1787.61 80.0541 1874.58 51.9037 1955 36.8902" stroke="#4C69FF" stroke-opacity="0.5" stroke-width="0.2" stroke-miterlimit="10"/>
<path d="M-2 16C77.5069 196.888 220.619 342.161 392.729 417.14C529.293 477.124 682.695 493.057 832.355 472.438C876.318 465.877 919.345 456.505 961.437 444.32C1062.46 414.329 1156.93 369.341 1248.6 321.542C1315.94 286.863 1382.36 251.248 1448.77 217.507C1455.32 213.758 1461.86 210.947 1469.35 207.198C1543.24 169.708 1619.94 134.093 1700.38 103.164C1783.63 70.3601 1869.69 43.1801 1952 30.9959" stroke="#4C69FF" stroke-opacity="0.5" stroke-width="0.2" stroke-miterlimit="10"/>
<path d="M2 12C79.6233 194.834 222.712 343.913 395.728 421.735C532.27 483.617 685.646 501.432 834.346 480.804C878.302 475.179 921.322 464.865 963.407 452.676C1064.41 422.673 1157.93 374.855 1249.58 325.161C1316.92 288.595 1382.39 250.153 1448.79 213.586C1455.33 209.835 1461.88 206.085 1469.36 202.335C1542.31 162.955 1619 124.513 1698.49 92.6343C1781.73 58.8804 1867.77 33.565 1951 23.2513" stroke="#4C69FF" stroke-opacity="0.5" stroke-width="0.2" stroke-miterlimit="10"/>
<path d="M5 9C81.7148 194.807 224.853 346.832 397.929 428.474C533.583 492.287 687.013 512.932 835.765 492.287C879.735 486.657 922.771 477.272 964.87 464.134C1064.97 433.167 1158.53 384.369 1249.28 331.817C1315.7 293.342 1381.19 252.051 1447.61 213.576C1454.16 209.822 1460.71 206.069 1467.26 201.376C1540.23 159.147 1616.95 118.795 1695.53 86.889C1778.8 53.1058 1864.87 27.7684 1950 21.1995" stroke="#4C69FF" stroke-opacity="0.5" stroke-width="0.2" stroke-miterlimit="10"/>
<path d="M8 5C83.7616 193.506 225.931 348.25 398.967 432.656C534.59 498.305 687.048 520.813 835.765 501.119C878.791 495.492 922.751 486.113 964.841 472.046C1064.92 440.159 1157.52 390.453 1248.25 335.121C1314.65 294.793 1379.19 250.715 1444.66 209.45C1451.21 205.698 1457.76 201.009 1464.31 197.258C1537.26 152.241 1613.02 110.038 1690.66 77.2139C1773.9 42.5137 1859.01 18.1298 1946 14.3784" stroke="#4C69FF" stroke-opacity="0.5" stroke-width="0.2" stroke-miterlimit="10"/>
<path d="M11 1C85.8137 191.639 227.025 350.348 400.967 437.685C574.909 525.023 779.711 540.987 964.875 481.824C1137.88 426.416 1288.44 309.967 1441.81 207.604C1595.18 105.241 1763.51 10.3911 1944 8.51286" stroke="#4C69FF" stroke-opacity="0.5" stroke-width="0.2" stroke-miterlimit="10"/>
</svg>
