<svg width="600" height="600" viewBox="0 0 600 600" fill="none" xmlns="http://www.w3.org/2000/svg">
<path d="M50.2178 133.841C86.7765 78.8833 140.44 37.5169 202.893 16.1511C265.346 -5.21462 333.102 -5.38686 395.663 15.6611C458.224 36.709 512.097 77.8021 548.934 132.573C585.772 187.344 603.518 252.735 599.422 318.615C595.326 384.494 569.618 447.184 526.28 496.971C482.942 546.757 424.394 580.861 359.708 593.998C295.022 607.135 227.809 598.572 168.483 569.635C109.157 540.699 61.0309 493.004 31.5608 433.942L34.2316 432.609C63.4086 491.084 111.056 538.304 169.792 566.953C228.527 595.602 295.072 604.079 359.114 591.073C423.157 578.067 481.122 544.302 524.029 495.011C566.935 445.72 592.388 383.654 596.443 318.43C600.498 253.206 582.929 188.465 546.457 134.239C509.986 80.0128 456.649 39.3286 394.711 18.4901C332.773 -2.3484 265.691 -2.17787 203.859 18.9753C142.027 40.1284 88.8979 81.0833 52.703 135.494L50.2178 133.841Z" fill="url(#paint0_linear_468_432)"/>
<path d="M50.2178 133.841C86.7765 78.8833 140.44 37.5169 202.893 16.1511C265.346 -5.21462 333.102 -5.38686 395.663 15.6611C458.224 36.709 512.097 77.8021 548.934 132.573C585.772 187.344 603.518 252.735 599.422 318.615C595.326 384.494 569.618 447.184 526.28 496.971C482.942 546.757 424.394 580.861 359.708 593.998C295.022 607.135 227.809 598.572 168.483 569.635C109.157 540.699 61.0309 493.004 31.5608 433.942L34.2316 432.609C63.4086 491.084 111.056 538.304 169.792 566.953C228.527 595.602 295.072 604.079 359.114 591.073C423.157 578.067 481.122 544.302 524.029 495.011C566.935 445.72 592.388 383.654 596.443 318.43C600.498 253.206 582.929 188.465 546.457 134.239C509.986 80.0128 456.649 39.3286 394.711 18.4901C332.773 -2.3484 265.691 -2.17787 203.859 18.9753C142.027 40.1284 88.8979 81.0833 52.703 135.494L50.2178 133.841Z" fill="url(#paint1_linear_468_432)"/>
<path d="M50.2178 133.841C86.7765 78.8833 140.44 37.5169 202.893 16.1511C265.346 -5.21462 333.102 -5.38686 395.663 15.6611C458.224 36.709 512.097 77.8021 548.934 132.573C585.772 187.344 603.518 252.735 599.422 318.615C595.326 384.494 569.618 447.184 526.28 496.971C482.942 546.757 424.394 580.861 359.708 593.998C295.022 607.135 227.809 598.572 168.483 569.635C109.157 540.699 61.0309 493.004 31.5608 433.942L34.2316 432.609C63.4086 491.084 111.056 538.304 169.792 566.953C228.527 595.602 295.072 604.079 359.114 591.073C423.157 578.067 481.122 544.302 524.029 495.011C566.935 445.72 592.388 383.654 596.443 318.43C600.498 253.206 582.929 188.465 546.457 134.239C509.986 80.0128 456.649 39.3286 394.711 18.4901C332.773 -2.3484 265.691 -2.17787 203.859 18.9753C142.027 40.1284 88.8979 81.0833 52.703 135.494L50.2178 133.841Z" fill="url(#paint2_linear_468_432)"/>
<defs>
<linearGradient id="paint0_linear_468_432" x1="0" y1="0" x2="639.548" y2="554.376" gradientUnits="userSpaceOnUse">
<stop stop-color="#4D69FF" stop-opacity="0.3"/>
<stop offset="1" stop-color="#9B4CFF" stop-opacity="0.15"/>
</linearGradient>
<linearGradient id="paint1_linear_468_432" x1="216" y1="-22" x2="242" y2="58.5" gradientUnits="userSpaceOnUse">
<stop stop-color="#3F3486"/>
<stop offset="1" stop-color="#D9D9D9" stop-opacity="0"/>
</linearGradient>
<linearGradient id="paint2_linear_468_432" x1="150" y1="634.5" x2="168.5" y2="506.5" gradientUnits="userSpaceOnUse">
<stop stop-color="#3F3486"/>
<stop offset="1" stop-color="#D9D9D9" stop-opacity="0"/>
</linearGradient>
</defs>
</svg>
