<svg width="146" height="146" viewBox="0 0 146 146" fill="none" xmlns="http://www.w3.org/2000/svg">
<path d="M72.9995 24C84.3359 24 95.3216 27.9307 104.085 35.1225C112.848 42.3142 118.846 52.322 121.058 63.4406C123.27 74.5592 121.558 86.1006 116.214 96.0984C110.87 106.096 102.224 113.932 91.751 118.27C81.2775 122.608 69.6238 123.181 58.7756 119.89C47.9273 116.599 38.5557 109.649 32.2575 100.223C25.9593 90.7971 23.1243 79.479 24.2355 68.1972C25.3466 56.9153 30.3352 46.3678 38.3513 38.3518" stroke="url(#paint0_linear_241_3170)" stroke-width="10" stroke-linecap="round"/>
<path d="M72.9995 5.00001C84.3645 5.00001 95.5483 7.84852 105.529 13.2852C115.509 18.7218 123.967 26.5732 130.131 36.1217C136.294 45.6702 139.966 56.6112 140.811 67.9448C141.656 79.2783 139.647 90.6429 134.967 101C130.288 111.357 123.087 120.375 114.023 127.232C104.959 134.088 94.3213 138.563 83.082 140.248C71.8426 141.933 60.3601 140.775 49.684 136.878C39.008 132.981 29.4788 126.471 21.9676 117.942" stroke="url(#paint1_linear_241_3170)" stroke-width="10" stroke-linecap="round"/>
<path d="M9.6023 97.5926C6.37276 89.2671 4.81466 80.3871 5.01696 71.4595C5.21927 62.5319 7.17801 53.7316 10.7814 45.561C14.3847 37.3904 19.5621 30.0095 26.0179 23.8398C32.4737 17.6701 40.0815 12.8323 48.407 9.6028" stroke="url(#paint2_linear_241_3170)" stroke-width="10" stroke-linecap="round"/>
<circle cx="73.4995" cy="72.5" r="29" fill="#09090E" stroke="#141520"/>
<path d="M73.9995 82.8334C68.0162 82.8334 63.1661 77.9833 63.1661 72.0001C63.1661 66.0168 68.0162 61.1667 73.9995 61.1667C79.9827 61.1667 84.8328 66.0168 84.8328 72.0001C84.8328 77.9833 79.9827 82.8334 73.9995 82.8334ZM73.9995 80.6667C76.298 80.6667 78.5024 79.7537 80.1277 78.1283C81.753 76.503 82.6661 74.2986 82.6661 72.0001C82.6661 69.7015 81.753 67.4971 80.1277 65.8718C78.5024 64.2465 76.298 63.3334 73.9995 63.3334C71.7009 63.3334 69.4965 64.2465 67.8712 65.8718C66.2459 67.4971 65.3328 69.7015 65.3328 72.0001C65.3328 74.2986 66.2459 76.503 67.8712 78.1283C69.4965 79.7537 71.7009 80.6667 73.9995 80.6667V80.6667ZM70.7495 67.6667H77.2495L79.9578 71.4584L73.9995 77.4167L68.0411 71.4584L70.7495 67.6667ZM71.8653 69.8334L70.8686 71.2309L73.9995 74.3617L77.1303 71.2309L76.1336 69.8334H71.8653V69.8334Z" fill="#6A6A9F"/>
<defs>
<linearGradient id="paint0_linear_241_3170" x1="45.9993" y1="19" x2="46.0893" y2="124.308" gradientUnits="userSpaceOnUse">
<stop stop-color="#E323FF"/>
<stop offset="1" stop-color="#7517F8"/>
</linearGradient>
<linearGradient id="paint1_linear_241_3170" x1="-0.00048654" y1="8.70228e-06" x2="-0.000488218" y2="140.677" gradientUnits="userSpaceOnUse">
<stop stop-color="#4D9FFF"/>
<stop offset="1" stop-color="#4DA1FF"/>
</linearGradient>
<linearGradient id="paint2_linear_241_3170" x1="36.4992" y1="5.07257e-06" x2="36.6208" y2="142.36" gradientUnits="userSpaceOnUse">
<stop stop-color="#FFD422"/>
<stop offset="1" stop-color="#FF7D05"/>
</linearGradient>
</defs>
</svg>
